<svg id="书" xmlns="http://www.w3.org/2000/svg" baseProfile="full" width="100%" height="100%" viewBox="0 0 2480 1395">
  <defs>
    <style>
      .cls-1 {
        fill: #4671c6;
      }

      .cls-1, .cls-11, .cls-2, .cls-3, .cls-5, .cls-8, .cls-9 {
        stroke: #3762cc;
      }

      .cls-1, .cls-2 {
        stroke-width: 16px;
      }

      .cls-1, .cls-2, .cls-3, .cls-4, .cls-6, .cls-7, .cls-8, .cls-9 {
        fill-rule: evenodd;
      }

      .cls-2, .cls-5 {
        fill: #e0ebfc;
      }

      .cls-10, .cls-11, .cls-3 {
        fill: none;
      }

      .cls-11, .cls-3, .cls-5, .cls-6 {
        stroke-width: 20px;
      }

      .cls-4 {
        fill: #b9befc;
      }

      .cls-6, .cls-7 {
        fill: #6bdddd;
      }

      .cls-6 {
        stroke: #6bdddd;
      }

      .cls-8 {
        fill: #a4c9ff;
      }

      .cls-8, .cls-9 {
        stroke-width: 10px;
      }

      .cls-9 {
        fill: #ffea92;
      }

      .cls-10 {
        stroke: #c9c9c9;
        stroke-width: 30px;
      }
    </style>
  </defs>
  <path id="外框" class="cls-1" d="M680,576.924H1801a30,30,0,0,1,30,30V1268a30,30,0,0,1-30,30H680a30,30,0,0,1-30-30V606.924A30,30,0,0,1,680,576.924Z"/>
  <path id="内框" class="cls-2" d="M731.819,587.548l512.451-183.9,505.99,183.9a21.583,21.583,0,0,1,21.53,21.635v616.6a21.587,21.587,0,0,1-21.53,21.64H731.819a21.587,21.587,0,0,1-21.531-21.64v-616.6A21.583,21.583,0,0,1,731.819,587.548Z"/>
  <path id="书页_左" data-name="书页 左" class="cls-3" d="M1233,1284s-0.2-42.9,0-57c0.88-61.7-61.72-108.03-134-107-209.855,2.99-385,81-385,81"/>
  <path id="书页_右" data-name="书页 右" class="cls-3" d="M1235,1270s0.2-39.9,0-54c-0.88-61.7,70.24-105.2,148-106,153.37-1.58,388,70,388,70"/>
  <path id="书_中线" data-name="书 中线" class="cls-3" d="M1233.5,1291.54V410.108"/>
  <g id="内容">
    <g id="左">
      <path id="内容_左_1" data-name="内容 左 1" class="cls-4" d="M772.693,1014.07c135.154-47.451,310.837-82.4,402.207-36.02,11.58,6.242,1.22,28.05-9,28.02-22.65-.07-82-57.078-381.2,37.02C764.567,1049.42,754.124,1020.59,772.693,1014.07Z"/>
      <path id="内容_左_2" data-name="内容 左 2" class="cls-4" d="M772.693,898c135.154-47.456,310.837-82.4,402.207-36.024,11.58,6.241,1.22,28.049-9,28.019-22.65-.068-82-57.077-381.2,37.024C764.567,933.348,754.124,904.518,772.693,898Z"/>
      <path id="内容_左_3" data-name="内容 左 3" class="cls-4" d="M772.693,789.927c135.154-47.456,310.837-82.4,402.207-36.024,11.58,6.241,1.22,28.049-9,28.018-22.65-.067-82-57.076-381.2,37.025C764.567,825.277,754.124,796.447,772.693,789.927Z"/>
      <path id="内容_左_4" data-name="内容 左 4" class="cls-4" d="M772.693,673.85c135.154-47.455,310.837-82.4,402.207-36.023,11.58,6.241,1.22,28.048-9,28.018-22.65-.067-82-57.076-381.2,37.025C764.567,709.2,754.124,680.37,772.693,673.85Z"/>
    </g>
    <g id="右">
      <path id="内容_右_1" data-name="内容 右 1" class="cls-4" d="M1696.31,1014.07c-135.16-47.451-310.84-82.4-402.21-36.02-11.58,6.242-1.22,28.05,9,28.02,22.65-.07,82-57.078,381.2,37.02C1704.43,1049.42,1714.88,1020.59,1696.31,1014.07Z"/>
      <path id="内容_右_2" data-name="内容 右 2" class="cls-4" d="M1696.31,898c-135.16-47.456-310.84-82.4-402.21-36.024-11.58,6.241-1.22,28.049,9,28.019,22.65-.068,82-57.077,381.2,37.024C1704.43,933.348,1714.88,904.518,1696.31,898Z"/>
      <path id="内容_右_3" data-name="内容 右 3" class="cls-4" d="M1696.31,789.927c-135.16-47.456-310.84-82.4-402.21-36.024-11.58,6.241-1.22,28.049,9,28.019,22.65-.068,82-57.077,381.2,37.024C1704.43,825.277,1714.88,796.447,1696.31,789.927Z"/>
      <path id="内容_右_4" data-name="内容 右 4" class="cls-4" d="M1696.31,673.85c-135.16-47.455-310.84-82.4-402.21-36.023-11.58,6.241-1.22,28.048,9,28.018,22.65-.067,82-57.076,381.2,37.025C1704.43,709.2,1714.88,680.37,1696.31,673.85Z"/>
    </g>
  </g>
  <circle id="地球" class="cls-5" cx="1238.892" cy="502.656" r="404.798"/>
  <path id="地图_左" data-name="地图 左" class="cls-6" d="M1016.42,229.148s-12.12,62.217,47.37,69.955c7.82,1.018,46.29,44.126,46.29,44.126v50.583l-29.07,45.2-49.52,2.153s-30.02-21.772-47.37,21.525c-3.8,9.48,1.287,24.756,6.46,72.107,0.291,2.669-15.886,27-39.834,68.879-7.724,13.508-21.4-2.319-38.756,26.906-2.835,4.772-20.761,21.869,17.225,62.421,2.818,3.008,10.421,20.571,39.833,2.153,10.322-6.464,33.862,12.017,33.372,31.211-0.03,1.452-.29,17.674,19.38,33.363,23.48,18.731,21.97.655,60.29,11.838,4.98,1.455,20.94,12.48,18.3,38.745-1.85,18.407,23.07,32.031,30.14,44.125,11.01,18.816,13.08,20.705,12.47,20.561-124.23-29.208-288-158.426-288-373,0-119.838,58.215-233.273,136-294C991.691,208.265,1016.42,229.148,1016.42,229.148Z">
	  <animateTransform attributeType="XML" attributeName="transform" begin="0s" dur="6s" type="rotate" from="360 1238.892 502.656" to="0 1238.892 502.656" repeatCount="indefinite"/>
  </path>
  <path id="地图_右" data-name="地图 右" class="cls-6" d="M1454.74,239.063s-16.4,16.014-25.84,31.21c-4.16,6.7-17.22,22.6-17.22,22.6s-7.83,4.764,3.23,24.754c5.58,10.1,15.57,15.761,30.14,8.61,11.54-5.666,17.53-19.809,35.53-1.077,9.8,10.2,14.17,30.834-34.45,36.592-37.09,4.392-59.21,53.812-59.21,53.812s-19.78,24.556,16.14,54.888c8.14,6.868,20.44,34.373,38.76,30.134,18.92-4.378,45.18-7.82,68.9-23.677,17.21-11.5,54.77-9.515,72.13,34.44,4.85,12.267-11.25,38.233-40.18,45.772-120.66,31.438-128.79-3.636-144.99,42.479-5.42,15.436-14.94,28.143-30.14,40.9-7.46,6.255-7.13,5.435,0,43.049,3.39,17.918,12.71,33.247,37.68,36.592,19.95,2.674,31.25,41.383,9.69,68.879-1.44,1.831,5.83,7.13,11.84,27.982,2.56,8.885-7.74,25.464-6.75,25,45.58-21.337,203-126.48,203-341,0-119.808-51.02-208.932-117-275C1505.31,226.265,1454.74,239.063,1454.74,239.063Z">
	  <animateTransform attributeType="XML" attributeName="transform" begin="0s" dur="6s" type="rotate" from="360 1238.892 502.656" to="0 1238.892 502.656" repeatCount="indefinite"/>
  </path>
  <path id="地图_岛_左" data-name="地图 岛 左" class="cls-7" d="M1010.65,618.9c16.14,2.962,30.74,2.176,43.06,19.372,7.27,10.132,23.82,12.426,38.76,12.915,11.51,0.376,27.41,13.353,33.37,31.211,6.29,18.8-3.68,19.306-32.29,15.067-22.54-3.338-41.84-6.442-50.6-19.372-6.44-9.512-14-5.479-19.38-25.83-2.67-10.1-12.55-11.567-25.837-10.762-16.108.976-17.335-14.4-15.8-22.25C982.4,616.851,983.74,613.956,1010.65,618.9Z">
	  <animateTransform attributeType="XML" attributeName="transform" begin="0s" dur="6s" type="rotate" from="360 1238.892 502.656" to="0 1238.892 502.656" repeatCount="indefinite"/>
  </path>
  <path id="地图_岛_右" data-name="地图 岛 右" class="cls-7" d="M1288.41,334.771c2.98-2.79,17.35-23.089,32.29-22.6,8.13,0.266,10.73,9.4,14,21.525,1.64,6.1-6.23,22.953-8.61,24.753-14.91,11.252-15.09-5.016-27.99,8.61-13.63,14.394-30.14,25.942-36.61,20.449C1250.9,378.5,1297.65,326.119,1288.41,334.771Z">
	  <animateTransform attributeType="XML" attributeName="transform" begin="0s" dur="6s" type="rotate" from="360 1238.892 502.656" to="0 1238.892 502.656" repeatCount="indefinite"/>
  </path>
  <path id="手柄" class="cls-8" d="M1632.31,790.557l180.04,171.267c3.82,3.638,3.03,10.674-1.76,15.714l-52.13,54.762c-4.8,5.04-11.79,6.18-15.61,2.54L1562.8,863.575c-3.82-3.638-3.03-10.673,1.77-15.714l52.12-54.764C1621.49,788.057,1628.48,786.919,1632.31,790.557Z"/>
  <path id="手柄_黄" data-name="手柄 黄" class="cls-9" d="M1553.52,729.746l63.45,60.463c1.75,1.669,1.51,4.767-.54,6.918l-49.02,51.417c-2.05,2.152-5.14,2.542-6.89.872l-63.45-60.462c-1.76-1.67-1.51-4.767.54-6.918l49.02-51.417C1548.68,728.467,1551.76,728.077,1553.52,729.746Z"/>
  <ellipse id="放大镜_中" data-name="放大镜 中" class="cls-10" cx="1362" cy="601" rx="218" ry="215"/>
  <circle id="放大镜_外" data-name="放大镜 外" class="cls-11" cx="1363" cy="601" r="236"/>
</svg>
