<svg id="卫星新" xmlns="http://www.w3.org/2000/svg" baseProfile="full" width="100%" height="100%" viewBox="0 0 2480 1395">
  <defs>
    <style>
      .cls-1 {
        fill: #020205;
      }

      .cls-1, .cls-2, .cls-3, .cls-4, .cls-5, .cls-6, .cls-7 {
        fill-rule: evenodd;
      }

      .cls-2 {
        fill: #43c3ff;
      }

      .cls-3 {
        fill: #ffcd7e;
      }

      .cls-4, .cls-8 {
        fill: #4de4ca;
      }

      .cls-5 {
        fill: none;
        stroke: #020205;
        stroke-width: 5px;
      }

      .cls-6 {
        fill: #a0a0a0;
      }

      .cls-7 {
        fill: #dcdcdc;
      }
    </style>
  </defs>
  <path id="下" class="cls-1" d="M1116.5,415.979l-7.16,14.673-60.78-29.806,7.16-14.673Z">
	  <animateMotion path="M 0 0 L 40 20 Z" dur="3s" repeatCount="indefinite"/>
  </path>
  <path id="上" class="cls-1" d="M1434.3,570l-6.57,12.979-55.81-26.364,6.58-12.979Z">
	  <animateMotion path="M 0 0 L 40 20 Z" dur="3s" repeatCount="indefinite"/>
  </path>
  <path id="电池板_上" data-name="电池板 上" class="cls-2" d="M1719.5,853.134L1379.68,690.057c-4.4-2.114-5.39-9.25-2.19-15.938l94.87-198.6c3.19-6.688,9.35-10.4,13.76-8.281l339.82,163.076c4.4,2.115,5.38,9.25,2.19,15.938l-94.87,198.6C1730.07,851.54,1723.91,855.248,1719.5,853.134Z">
	  <animateMotion path="M 0 0 L 40 20 Z" dur="3s" repeatCount="indefinite"/>
  </path>
  <path id="电池板下" class="cls-2" d="M993.891,509.48L654.072,346.4c-4.406-2.114-5.387-9.25-2.193-15.937l94.867-198.6c3.2-6.689,9.356-10.4,13.762-8.282L1100.33,286.66c4.4,2.114,5.38,9.25,2.19,15.937l-94.87,198.6C1004.46,507.887,998.3,511.594,993.891,509.48Z">
	  <animateMotion path="M 0 0 L 40 20 Z" dur="3s" repeatCount="indefinite"/>
  </path>
  <path id="身子" class="cls-3" d="M1284.45,729.873L1030.93,606.647a10.2,10.2,0,0,1-4.98-13.5l164.44-339.871a10.147,10.147,0,0,1,13.66-4.438l253.52,123.226a10.185,10.185,0,0,1,4.98,13.5L1298.11,725.436A10.144,10.144,0,0,1,1284.45,729.873Z">
	  <animateMotion path="M 0 0 L 40 20 Z" dur="3s" repeatCount="indefinite"/>
  </path>
  <path id="绿_下" data-name="绿 下" class="cls-4" d="M1413.06,350.177l-162.95-77.806a10.9,10.9,0,0,1-5.14-14.511l29.48-61.885a10.86,10.86,0,0,1,14.49-5.136l162.95,77.806a10.9,10.9,0,0,1,5.14,14.511l-29.47,61.885A10.875,10.875,0,0,1,1413.06,350.177Z">
	  <animateMotion path="M 0 0 L 40 20 Z" dur="3s" repeatCount="indefinite"/>
  </path>
  <path id="绿_上" data-name="绿 上" class="cls-4" d="M1171.92,729.381L1082.24,685.9a5.621,5.621,0,0,1-2.53-7.832l18.1-32.837a6.372,6.372,0,0,1,8.28-2.592l89.67,43.479a5.621,5.621,0,0,1,2.53,7.832l-18.1,32.836A6.359,6.359,0,0,1,1171.92,729.381Z">
	  <animateMotion path="M 0 0 L 40 20 Z" dur="3s" repeatCount="indefinite"/>
  </path>
  <path id="信号_3" data-name="信号 3" class="cls-5" d="M988.451,1262.38c-99.825,34.65-208.812-18.35-243.43-118.38">
	  <animateMotion path="M 0 0 L 40 20 Z" dur="3s" repeatCount="indefinite"/>
  </path>
  <path id="信号_2" data-name="信号 2" class="cls-5" d="M964.59,1193.43a118.466,118.466,0,0,1-150.761-73.32">
	  <animateMotion path="M 0 0 L 40 20 Z" dur="3s" repeatCount="indefinite"/>
  </path>
  <path id="信号_1" data-name="信号 1" class="cls-5" d="M932.966,1112.22a31.516,31.516,0,0,1-40.111-19.5">
	  <animateMotion path="M 0 0 L 40 20 Z" dur="3s" repeatCount="indefinite"/>
  </path>
  <path id="信号挡板" class="cls-6" d="M1255.25,1092.49L729.385,840.046a10.86,10.86,0,1,1,9.417-19.572L1264.66,1072.91A10.862,10.862,0,1,1,1255.25,1092.49Z">
	  <animateMotion path="M 0 0 L 40 20 Z" dur="3s" repeatCount="indefinite"/>
  </path>
  <path id="发射装置" class="cls-7" d="M760.153,830.376C825.994,693.589,989.7,635.6,1125.81,700.855S1318.87,929.9,1253.03,1066.69">
	  <animateMotion path="M 0 0 L 40 20 Z" dur="3s" repeatCount="indefinite"/>
  </path>
  <path id="挡板与信号球连接" class="cls-6" d="M996.66,947.191a12.731,12.731,0,0,1,5.9,17L985.449,999.6a12.713,12.713,0,1,1-22.879-11.09l17.113-35.41A12.7,12.7,0,0,1,996.66,947.191Z">
	  <animateMotion path="M 0 0 L 40 20 Z" dur="3s" repeatCount="indefinite"/>
  </path>
  <circle id="信号球" class="cls-8" cx="953.688" cy="1027.266" r="43.907">
	  <animateMotion path="M 0 0 L 40 20 Z" dur="3s" repeatCount="indefinite"/>
  </circle>
</svg>
