<svg id="太阳新" xmlns="http://www.w3.org/2000/svg" baseProfile="full" width="100%" height="100%" viewBox="0 0 2480 1395">
  <defs>
    <style>
      .cls-1 {
        fill: #fdca00;
      }

      .cls-2, .cls-4 {
        fill: #fff442;
      }

      .cls-2, .cls-3, .cls-5, .cls-6 {
        fill-rule: evenodd;
      }

      .cls-3 {
        fill: #ffe402;
      }

      .cls-5 {
        fill: #b8e9fa;
      }

      .cls-6 {
        fill: #e6f8fc;
      }
    </style>
  </defs>
  <circle id="太阳" class="cls-1" cx="929.764" cy="580.422" r="351.795"/>
  <path id="太阳环" class="cls-2" d="M1421.29,580.616c0,0.746,0,1.464-.01,2.184a0.407,0.407,0,0,0,.01.109h-0.01c-0.16,31.388-7.42,38.395-55.21,49.3-26.7,6.1-44.44,29.751-52.7,57.329-20.83,69.553,69.96,84.937,46.98,138.736-24.69,57.785-112.03-13.628-152.39,38.984-56.76,73.986,25.65,103.039-26.36,144.469-39.66,31.6-89.43-57.3-148.95-44.717-36.273,7.67-54.58,33.3-64.158,65.357-2.819,16.63-4.868,38.92-36.742,42.94a2,2,0,1,1-.031.41c-1.365.01-2.67,0-3.949-.02-1.64.12-3.324,0.21-5.109,0.24,0-.12,0-0.27,0-0.42-25.688-1.48-32.425-11.8-42.492-55.95-6.089-26.708-29.724-44.456-57.276-52.717-69.489-20.836-84.859,69.977-138.608,46.987-57.732-24.691,13.615-112.048-38.948-152.42C571.421,804.647,542.394,887.073,501,835.062c-31.569-39.669,57.247-89.455,44.676-148.98-7.663-36.285-33.264-54.6-65.295-64.177-17.725-3.006-38.572-5.168-40.015-43.537-2.024-.013-2.838-0.028-2.154-0.046-0.163-33.361,7.208-40.426,56.143-51.6,26.7-6.1,44.446-29.751,52.7-57.329,20.831-69.553-69.959-84.936-46.977-138.736,24.686-57.785,112.025,13.628,152.388-38.983,56.762-73.986-25.648-103.04,26.353-144.47,39.66-31.6,89.436,57.3,148.95,44.717,36.277-7.67,54.585-33.294,64.163-65.355,2.818-16.637,4.867-38.926,36.742-42.937a2.118,2.118,0,1,1,.03-0.418c1.365-.007,2.671,0,3.95.026,1.639-.12,3.324-0.212,5.109-0.241,0,0.118,0,.272,0,0.419,25.688,1.479,32.426,11.8,42.493,55.95,6.089,26.707,29.719,44.455,57.279,52.716,69.49,20.836,84.86-69.973,138.6-46.986,57.74,24.69-13.61,112.047,38.95,152.419,73.92,56.773,102.95-25.653,144.34,26.358,31.57,39.669-57.25,89.455-44.68,148.981,7.67,36.285,33.27,54.6,65.3,64.176,17.73,3.006,39.68,5.169,41.16,43.558C1421.58,580.6,1421.63,580.607,1421.29,580.616ZM929.643,229.762c-193.044,0-349.536,156.569-349.536,349.707S736.6,929.176,929.643,929.176,1279.18,772.607,1279.18,579.469,1122.69,229.762,929.643,229.762Z">
	  <animateTransform attributeType="XML" attributeName="transform" begin="0s" dur="15s" type="rotate" from="360 929.764 580.422" to="0 929.764 580.422" repeatCount="indefinite"/>
  </path>
  <path id="太阳_右" data-name="太阳 右" class="cls-3" d="M1018.42,917.284C868.261,879.122,757.128,742.352,757.128,579.462S868.261,279.8,1018.42,241.639c150.16,38.163,261.29,174.933,261.29,337.823S1168.58,879.122,1018.42,917.284Z"/>
  <circle id="太阳_右小" data-name="太阳 右小" class="cls-4" cx="1081.156" cy="451.656" r="94.594"/>
  <path id="云_右" data-name="云 右" class="cls-5" d="M1953.53,1013.26v0.27H1687.44a155.523,155.523,0,0,1-172.61-130.836c-130.46-1.516-235.76-107.759-235.76-238.621,0-131.807,106.82-238.657,238.59-238.657,119.21,0,218,87.466,235.74,201.743A155.441,155.441,0,0,1,1926,761.68a154.857,154.857,0,0,1-14.58,65.767A96.363,96.363,0,1,1,1953.53,1013.26Z">
	  <animateMotion path="M 15 0 L 0 0 Z" dur="5s" repeatCount="indefinite"/>
  </path>
  <path id="云_中" data-name="云 中" class="cls-6" d="M1604.83,1311.18v0.67H1318.99a204.892,204.892,0,0,1-21.57,1.15c-112.76,0-204.17-91.44-204.17-204.24a204.657,204.657,0,0,1,7.67-55.64c-85.41-36.33-145.314-121.028-145.314-219.728,0-131.807,106.814-238.657,238.584-238.657s238.58,106.85,238.58,238.657a237.753,237.753,0,0,1-23.9,104.233,204.482,204.482,0,0,1,89.04,209.915A109.544,109.544,0,1,1,1604.83,1311.18Z"/>
  <path id="云_左" data-name="云 左" class="cls-5" d="M1219.43,1313a165.845,165.845,0,0,1-19.41-1.15H572.661a114.739,114.739,0,1,1-16.224-228.33,114.161,114.161,0,0,1,58.617,16.1,238.977,238.977,0,0,1-8.148-61.99c0-131.81,106.818-238.66,238.585-238.66s238.579,106.85,238.579,238.66q0,10-.82,19.8A164.05,164.05,0,1,1,1219.43,1313Z">
	  <animateMotion path="M 0 0 L -50 0 Z" dur="5s" repeatCount="indefinite"/>
  </path>
</svg>
